<?xml version="1.0" encoding="utf-8"?>
<!-- Generator: Adobe Illustrator 16.0.3, SVG Export Plug-In . SVG Version: 6.00 Build 0)  -->
<!DOCTYPE svg PUBLIC "-//W3C//DTD SVG 1.1//EN" "http://www.w3.org/Graphics/SVG/1.1/DTD/svg11.dtd">
<svg version="1.1" id="Layer_1" xmlns="http://www.w3.org/2000/svg" xmlns:xlink="http://www.w3.org/1999/xlink" x="0px" y="0px"
	 width="175px" height="41px" viewBox="0 0 175 41" enable-background="new 0 0 175 41" xml:space="preserve">
<g>
	<g opacity="0.2">
		<path d="M5.463,0.059L0,0.032v17.669h5.377c-0.175,2.978-0.617,5.732-1.33,8.261C3.102,29.313,1.754,32.561,0,35.707l9.711,5.261
			c3.732-3.282,6.891-7.485,9.476-12.612c2.586-5.125,3.878-9.979,3.878-14.565l0.066-13.758H5.463V0.059z"/>
		<path d="M32.478,0.032v0.026l-5.463-0.026v17.669h5.378c-0.175,2.978-0.618,5.732-1.331,8.261
			c-0.943,3.351-2.292,6.599-4.047,9.745l9.712,5.261c3.732-3.282,6.891-7.485,9.475-12.612c2.586-5.125,3.878-9.979,3.878-14.565
			l0.068-13.758H32.478z"/>
	</g>
	<g>
		<path d="M36.649,14.79v-2.75h9.061v2.75l-2.078,0.469v3.218h1.563l2.53-3.749c0.636-0.979,1.302-1.716,1.999-2.211
			c0.698-0.495,1.568-0.742,2.609-0.742c0.521,0,0.99,0.073,1.406,0.219c0.416,0.146,0.828,0.344,1.234,0.594l-0.766,3.156
			c-0.313-0.084-0.509-0.136-0.586-0.156c-0.078-0.021-0.222-0.031-0.43-0.031c-0.313,0-0.643,0.119-0.992,0.359
			c-0.349,0.239-0.648,0.541-0.897,0.905l-2.188,3.188l3.921,5.827l2.297,0.374v2.734h-6.265l-3.688-6.326h-1.75v3.124l2.078,0.468
			v2.734h-9.061v-2.734l2.437-0.468V15.259L36.649,14.79z"/>
		<path d="M67.753,28.943c-0.124-0.281-0.234-0.57-0.327-0.867c-0.095-0.296-0.167-0.596-0.219-0.898
			c-0.541,0.625-1.201,1.131-1.976,1.516c-0.777,0.385-1.665,0.578-2.664,0.578c-1.655,0-2.972-0.451-3.945-1.351
			c-0.974-0.901-1.461-2.128-1.461-3.681c0-1.582,0.635-2.806,1.906-3.67c1.271-0.865,3.135-1.297,5.593-1.297h2.328v-1.656
			c0-0.812-0.234-1.442-0.703-1.89c-0.47-0.448-1.162-0.672-2.078-0.672c-0.52,0-0.984,0.06-1.391,0.18
			c-0.405,0.119-0.734,0.263-0.983,0.43l-0.297,1.812H58.1l0.015-3.749c0.834-0.563,1.788-1.036,2.866-1.422
			c1.079-0.385,2.253-0.578,3.523-0.578c2.094,0,3.794,0.513,5.101,1.539c1.308,1.025,1.961,2.486,1.961,4.382v6.982
			c0,0.261,0.003,0.506,0.009,0.734c0.004,0.23,0.021,0.447,0.055,0.657l1.389,0.187v2.734H67.753z M63.801,25.896
			c0.688,0,1.313-0.148,1.875-0.443c0.563-0.298,1-0.67,1.313-1.117v-2.578H64.66c-0.969,0-1.703,0.226-2.202,0.68
			c-0.501,0.453-0.751,0.996-0.751,1.632c0,0.573,0.186,1.021,0.556,1.343C62.632,25.735,63.145,25.896,63.801,25.896z"/>
		<path d="M84.501,12.04c2.249,0,4.002,0.396,5.256,1.188c1.255,0.792,1.884,1.969,1.884,3.531c0,0.791-0.264,1.494-0.789,2.108
			c-0.526,0.615-1.273,1.084-2.242,1.406c1.281,0.249,2.252,0.721,2.914,1.414c0.661,0.692,0.992,1.501,0.992,2.429
			c0,1.593-0.596,2.798-1.79,3.609c-1.192,0.812-2.902,1.218-5.132,1.218H75.002v-2.734l2.438-0.468V15.259l-2.438-0.469v-2.75
			h2.438H84.501z M81.986,18.93h2.765c0.802-0.011,1.391-0.15,1.765-0.422c0.376-0.271,0.563-0.672,0.563-1.202
			c0-0.615-0.214-1.065-0.642-1.352c-0.427-0.287-1.072-0.43-1.937-0.43h-2.515V18.93z M81.986,21.898v3.576h3.607
			c0.803,0,1.396-0.148,1.781-0.445c0.386-0.297,0.579-0.736,0.579-1.32c0-0.582-0.186-1.029-0.556-1.343
			c-0.37-0.312-0.971-0.468-1.805-0.468H81.986z"/>
		<path d="M104.106,12.04v2.75l-2.188,0.469v7.046l0.094,0.015l5.499-10.279h4.563h2.421v2.75l-2.421,0.469v10.482l2.421,0.468
			v2.734h-9.171v-2.734l2.188-0.468v-7.077l-0.094-0.016l-5.499,10.295H94.92v-2.734l2.438-0.468V15.259L94.92,14.79v-2.75h6.999
			H104.106z"/>
		<path d="M125.431,12.04v2.734l-1.953,0.469v2.108c0,1.115,0.246,1.886,0.735,2.313c0.489,0.428,1.317,0.641,2.483,0.641
			c0.387,0,0.769-0.021,1.147-0.063c0.381-0.042,0.77-0.104,1.164-0.188v-4.796l-1.968-0.469v-2.75h8.968v2.75l-2.438,0.469v10.482
			l2.438,0.468v2.734h-9.437v-2.734l2.437-0.468v-2.156c-0.385,0.083-0.777,0.144-1.179,0.179c-0.4,0.037-0.779,0.056-1.133,0.056
			c-2.489,0-4.407-0.531-5.757-1.594c-1.349-1.062-2.022-2.687-2.022-4.874v-2.108l-2.423-0.469V12.04h6.983H125.431z"/>
		<path d="M138.632,14.79v-2.75h9.062v2.75l-2.078,0.469v3.218h1.562l2.531-3.749c0.635-0.979,1.302-1.716,2-2.211
			c0.697-0.495,1.567-0.742,2.608-0.742c0.521,0,0.991,0.073,1.406,0.219c0.417,0.146,0.828,0.344,1.234,0.594l-0.766,3.156
			c-0.313-0.084-0.508-0.136-0.587-0.156c-0.077-0.021-0.22-0.031-0.428-0.031c-0.313,0-0.645,0.119-0.992,0.359
			c-0.351,0.239-0.649,0.541-0.899,0.905l-2.187,3.188l3.922,5.827l2.295,0.374v2.734h-6.265l-3.686-6.326h-1.75v3.124l2.078,0.468
			v2.734h-9.062v-2.734l2.438-0.468V15.259L138.632,14.79z"/>
		<path d="M169.736,28.943c-0.125-0.281-0.234-0.57-0.328-0.867c-0.094-0.296-0.167-0.596-0.22-0.898
			c-0.541,0.625-1.2,1.131-1.976,1.516s-1.664,0.578-2.663,0.578c-1.656,0-2.972-0.451-3.945-1.351
			c-0.974-0.901-1.46-2.128-1.46-3.681c0-1.582,0.635-2.806,1.905-3.67c1.271-0.865,3.135-1.297,5.593-1.297h2.328v-1.656
			c0-0.812-0.234-1.442-0.704-1.89c-0.468-0.448-1.16-0.672-2.077-0.672c-0.521,0-0.983,0.06-1.391,0.18
			c-0.406,0.119-0.733,0.263-0.984,0.43l-0.296,1.812h-3.438l0.018-3.749c0.832-0.563,1.787-1.036,2.866-1.422
			c1.077-0.385,2.252-0.578,3.522-0.578c2.094,0,3.794,0.513,5.101,1.539c1.308,1.025,1.96,2.486,1.96,4.382v6.982
			c0,0.261,0.004,0.506,0.009,0.734c0.005,0.23,0.024,0.447,0.055,0.657l1.39,0.187v2.734H169.736z M165.783,25.896
			c0.688,0,1.312-0.148,1.875-0.443c0.563-0.298,1-0.67,1.313-1.117v-2.578h-2.328c-0.969,0-1.702,0.226-2.202,0.68
			c-0.5,0.453-0.751,0.996-0.751,1.632c0,0.573,0.186,1.021,0.555,1.343C164.614,25.735,165.127,25.896,165.783,25.896z"/>
	</g>
</g>
</svg>
